<?xml version="1.0" encoding="iso-8859-1"?>
<!-- Uploaded to: SVG Repo, www.svgrepo.com, Generator: SVG Repo Mixer Tools -->
<svg height="800px" width="800px" version="1.1" id="Layer_1" xmlns="http://www.w3.org/2000/svg" xmlns:xlink="http://www.w3.org/1999/xlink" 
	 viewBox="0 0 512 512" xml:space="preserve">
<circle style="fill:#87DFD6;" cx="255.994" cy="255.994" r="244.894"/>
<path style="fill:#FFFE9F;" d="M499.512,255.306c0,0-62.126-26.012-150.478-38.824c53.415-71.533,78.951-133.856,78.951-133.856
	s-62.322,25.536-133.856,78.951C281.319,73.226,255.306,11.1,255.306,11.1s-26.012,62.126-38.824,150.477
	C144.95,108.162,82.627,82.627,82.627,82.627s25.536,62.322,78.951,133.856C73.226,229.294,11.1,255.306,11.1,255.306
	s62.126,26.012,150.477,38.824c-53.414,71.533-78.951,133.856-78.951,133.856s62.322-25.536,133.856-78.951
	c2.008,13.849,4.34,27.052,6.847,39.474l16.675,66.602c8.423,27.973,15.302,44.401,15.302,44.401s26.012-62.126,38.824-150.478
	c71.533,53.415,133.856,78.951,133.856,78.951s-25.536-62.322-78.951-133.856C437.386,281.319,499.512,255.306,499.512,255.306z"/>
<path style="fill:#E5E5E5;" d="M271.957,256c0-24.648,13.399-46.152,33.301-57.669c-9.798-5.67-21.166-8.932-33.301-8.932
	c-36.783,0-66.602,29.819-66.602,66.602s29.819,66.602,66.602,66.602c12.135,0,23.503-3.261,33.301-8.932
	C285.356,302.152,271.957,280.648,271.957,256z"/>
<path d="M227.278,412.042c-0.71,0.133-1.41,0.355-2.076,0.633c-0.677,0.278-1.321,0.622-1.92,1.021
	c-0.611,0.4-1.177,0.866-1.687,1.376s-0.977,1.077-1.376,1.687c-0.4,0.599-0.744,1.243-1.021,1.92
	c-0.278,0.666-0.488,1.365-0.633,2.076c-0.144,0.71-0.222,1.443-0.222,2.165c0,0.721,0.078,1.454,0.222,2.165
	c0.144,0.71,0.355,1.41,0.633,2.076c0.277,0.677,0.622,1.321,1.021,1.92c0.4,0.611,0.866,1.177,1.376,1.687s1.077,0.977,1.687,1.376
	c0.599,0.4,1.243,0.744,1.92,1.021c0.666,0.277,1.365,0.5,2.076,0.633c0.71,0.144,1.443,0.222,2.165,0.222
	c2.93,0,5.783-1.188,7.848-3.252c0.511-0.511,0.977-1.077,1.388-1.687c0.4-0.599,0.744-1.243,1.021-1.92
	c0.278-0.666,0.488-1.365,0.633-2.076c0.144-0.71,0.211-1.443,0.211-2.165c0-2.919-1.177-5.783-3.252-7.848
	C234.715,412.497,230.886,411.309,227.278,412.042z"/>
<path d="M437.02,74.981C388.667,26.628,324.38,0,256,0c-0.2,0-0.397,0.007-0.596,0.008C255.371,0.007,255.34,0,255.306,0
	c-0.046,0-0.09,0.01-0.135,0.01C187.94,0.222,124.725,26.188,76.779,73.225c-0.712,0.442-1.393,0.942-2.001,1.552
	c-0.608,0.608-1.109,1.29-1.551,2C26.188,124.724,0.222,187.94,0.01,255.171c0,0.046-0.01,0.09-0.01,0.135
	c0,0.033,0.007,0.064,0.008,0.098C0.008,255.603,0,255.801,0,256c0,68.38,26.628,132.667,74.98,181.019
	C123.333,485.37,187.62,512,256,512s132.667-26.628,181.02-74.981C485.372,388.667,512,324.38,512,256
	S485.372,123.333,437.02,74.981z M431.985,409.745c-9.617-20.462-30.381-61.036-63.303-107.477
	c55.992-9.54,99.296-23.506,120.617-31.185C485.913,323.987,464.864,372.159,431.985,409.745z M22.733,271.593
	c21.788,7.775,64.422,21.344,119.197,30.677c-32.377,45.675-52.997,85.677-62.819,106.45
	C46.852,371.405,26.189,323.813,22.733,271.593z M79.538,102.793c9.985,21.015,30.478,60.529,62.392,105.551
	c-54.7,9.32-97.292,22.864-119.107,30.645C26.573,187.095,47.328,139.842,79.538,102.793z M234.21,386.314
	c-2.61-12.935-4.879-26.013-6.742-38.872c-0.562-3.874-3.121-7.164-6.738-8.663s-7.754-0.98-10.889,1.361
	c-41.166,30.74-79.499,52.208-104.016,64.646c12.439-24.517,33.906-62.849,64.646-104.015c2.341-3.136,2.858-7.273,1.361-10.889
	c-1.497-3.615-4.789-6.175-8.663-6.738c-50.855-7.375-93.149-19.302-119.278-27.844c26.097-8.534,68.343-20.447,119.278-27.833
	c3.873-0.562,7.165-3.121,8.663-6.738c1.497-3.616,0.98-7.754-1.361-10.889c-30.74-41.166-52.208-79.499-64.646-104.015
	c24.517,12.439,62.849,33.907,104.016,64.646c3.136,2.341,7.274,2.858,10.889,1.361c3.616-1.497,6.176-4.789,6.738-8.663
	c7.375-50.856,19.302-93.149,27.844-119.278c8.534,26.097,20.447,68.343,27.833,119.278c0.562,3.874,3.121,7.164,6.738,8.663
	c3.615,1.497,7.754,0.98,10.889-1.361c41.166-30.74,79.499-52.208,104.016-64.646c-12.439,24.517-33.906,62.849-64.646,104.015
	c-2.341,3.136-2.858,7.273-1.361,10.889c1.497,3.615,4.789,6.175,8.663,6.738c50.855,7.375,93.149,19.302,119.278,27.844
	c-26.097,8.534-68.343,20.447-119.278,27.833c-3.873,0.562-7.165,3.121-8.663,6.738c-1.497,3.616-0.98,7.754,1.361,10.889
	c30.74,41.166,52.208,79.499,64.646,104.015c-24.517-12.439-62.849-33.907-104.016-64.646c-3.136-2.342-7.275-2.859-10.889-1.361
	c-3.616,1.497-6.176,4.789-6.738,8.663c-7.377,50.871-19.31,93.176-27.852,119.303c-1.47-4.487-3.037-9.445-4.661-14.837
	c-1.768-5.87-7.96-9.195-13.83-7.427c-5.87,1.768-9.195,7.96-7.427,13.83c3.87,12.847,7.407,23.276,10.142,30.899
	c-52.581-3.681-100.417-24.821-137.744-57.653c20.74-9.798,60.811-30.438,106.575-62.877c1.253,7.345,2.624,14.708,4.099,22.024
	c1.212,6.01,7.065,9.9,13.076,8.686C231.533,398.178,235.422,392.324,234.21,386.314z M102.793,79.538
	c37.049-32.21,84.303-52.965,136.196-56.715c-7.78,21.814-21.325,64.407-30.645,119.107
	C163.321,110.015,123.808,89.523,102.793,79.538z M271.593,22.733c52.221,3.456,99.813,24.12,137.126,56.379
	c-20.773,9.82-60.774,30.441-106.45,62.819C292.936,87.154,279.367,44.52,271.593,22.733z M302.268,368.682
	c46.441,32.92,87.016,53.685,107.477,63.303c-37.587,32.879-85.76,53.928-138.662,57.315
	C278.762,467.98,292.729,424.674,302.268,368.682z M368.682,208.344c32.439-45.763,53.077-85.832,62.875-106.571
	c32.827,37.321,53.967,85.151,57.651,137.723C467.856,231.81,424.594,217.871,368.682,208.344z"/>
<path d="M310.818,323.277c3.429-1.985,5.54-5.646,5.54-9.607c0-3.962-2.111-7.623-5.54-9.607
	c-17.123-9.909-27.761-28.326-27.761-48.062s10.637-38.153,27.761-48.062c3.429-1.985,5.54-5.646,5.54-9.607
	s-2.111-7.623-5.54-9.607c-11.785-6.82-25.223-10.425-38.861-10.425c-42.845,0-77.702,34.857-77.702,77.702
	s34.857,77.702,77.702,77.702C285.594,333.702,299.032,330.097,310.818,323.277z M216.455,256c0-30.603,24.898-55.501,55.501-55.501
	c3.754,0,7.488,0.382,11.14,1.131c-14.035,14.356-22.241,33.851-22.241,54.37s8.205,40.014,22.241,54.37
	c-3.652,0.749-7.385,1.131-11.14,1.131C241.353,311.501,216.455,286.603,216.455,256z"/>
</svg>