<?xml version="1.0" encoding="utf-8"?>
<!-- Uploaded to: SVG Repo, www.svgrepo.com, Generator: SVG Repo Mixer Tools -->
<svg width="800px" height="800px" viewBox="0 -0.05 20.109 20.109" xmlns="http://www.w3.org/2000/svg">
  <g id="edit-user-left-2" transform="translate(-1.891 -2)">
    <circle id="secondary" fill="#2ca9bc" cx="5" cy="5" r="5" transform="translate(8 3)"/>
    <path id="primary" d="M13,13h1a7,7,0,0,1,7,7,1,1,0,0,1-1,1H15" fill="none" stroke="#000000" stroke-linecap="round" stroke-linejoin="round" stroke-width="2"/>
    <path id="primary-2" data-name="primary" d="M3.29,14.69l1.4-1.4a1,1,0,0,1,1.4,0L11,18.2V21H8.2L3.29,16.09a1,1,0,0,1,0-1.4ZM8,8a5,5,0,1,0,5-5A5,5,0,0,0,8,8Z" fill="none" stroke="#000000" stroke-linecap="round" stroke-linejoin="round" stroke-width="2"/>
  </g>
</svg>