<?xml version="1.0" encoding="utf-8"?>
<!-- Uploaded to: SVG Repo, www.svgrepo.com, Generator: SVG Repo Mixer Tools -->
<!DOCTYPE svg PUBLIC "-//W3C//DTD SVG 1.1//EN" "http://www.w3.org/Graphics/SVG/1.1/DTD/svg11.dtd">
<svg fill="#000000" width="800px" height="800px" viewBox="0 0 1000 1000" version="1.1" xmlns="http://www.w3.org/2000/svg" xmlns:xlink="http://www.w3.org/1999/xlink"  enable-background="new 0 0 1000 1000" xml:space="preserve">

<g>
<g transform="translate(0.000000,511.000000) scale(0.100000,-0.100000)">
<path d="M4328.8,4795.7c-245-89.3-400.7-298.6-421.1-574.2c-20.4-283.3,25.5-354.7,553.8-877.9c405.8-405.8,461.9-451.7,538.5-451.7s132.7,45.9,530.8,441.5c490,484.9,566.6,594.6,566.6,824.3c0,255.2-142.9,500.2-362.4,612.5c-181.2,94.4-495.1,71.5-663.5-45.9c-71.5-48.5-71.5-48.5-140.4,0C4772.9,4834,4520.2,4862.1,4328.8,4795.7z"/>
<path d="M1906.9,2652c-342-91.9-556.3-395.6-556.3-786.1c0-181.2,58.7-308.8,194-428.7c250.1-216.9,497.7-232.2,732.4-38.3l135.3,109.7l74-63.8c270.5-219.5,566.6-234.8,819.2-43.4c61.2,48.5,125,86.8,137.8,86.8c12.8,0,76.6-38.3,137.8-86.8c250.1-191.4,541-178.6,803.9,35.7l84.2,71.5l130.1-97c148-112.3,331.8-165.9,472.1-140.4c109.7,20.4,316.5,127.6,377.7,194c40.8,45.9,46,45.9,135.3-25.5c278.2-219.5,556.3-232.2,814.1-33.2c107.2,81.7,122.5,86.8,173.5,53.6c293.5-186.3,296.1-186.3,467.1-186.3c176.1,0,283.3,40.8,418.5,153.1c40.8,33.2,84.2,61.2,97,61.2c15.3,0,76.6-38.3,140.4-86.8c316.5-242.4,735-145.5,916.2,211.8c35.7,68.9,40.8,132.7,33.2,293.5c-17.9,342-153.1,564-423.6,696.7l-145.5,71.4L5051,2680C2667.4,2682.6,2001.3,2677.5,1906.9,2652z"/>
<path d="M1350.5,87.1v-921.3H5000h3649.5V74.4c0,500.2-7.7,903.4-17.9,898.3c-262.9-130.1-273.1-132.7-556.4-135.3c-237.3,0-301.1,7.7-400.7,56.2l-122.5,56.1l-120-56.1c-102.1-45.9-168.4-56.2-390.5-56.2c-222,0-288.4,10.2-387.9,56.2l-122.5,56.1l-120-53.6c-86.8-38.3-191.4-58.7-352.2-66.3c-196.5-7.7-255.2,0-398.1,51l-168.4,61.2l-112.3-51c-168.5-76.6-625.3-76.6-793.7,2.5l-122.5,56.1l-120-56.1c-176.1-81.7-604.8-81.7-778.4,0l-122.5,56.1l-120-53.6c-86.8-38.3-191.4-58.7-354.7-66.3c-201.6-10.2-250.1-2.6-382.8,51l-153.1,61.2l-102.1-51c-81.7-45.9-145.5-53.6-380.3-53.6c-262.9,0-288.4,5.1-421.1,76.6c-76.6,40.8-148,79.1-158.2,84.2C1358.2,1003.3,1350.5,592.4,1350.5,87.1z"/>
<path d="M725.3-1107.3c-211.8-45.9-382.8-160.8-495.1-329.2c-84.2-127.6-150.6-362.4-112.3-390.5c15.3-7.7,56.1-76.6,94.4-150.6c79.1-155.7,229.7-311.4,367.5-377.7c56.2-28.1,171-51,285.8-56.2c222-10.2,408.3,43.4,599.7,171c63.8,43.4,125,79.1,135.3,79.1c10.2,0,61.3-35.7,112.3-76.6c324.1-268,709.5-270.5,1094.8-10.2c71.5,48.5,135.3,86.8,140.4,86.8c5.1,0,79.1-45.9,165.9-102.1c372.6-239.9,722.2-239.9,1038.7,0c74,56.2,140.4,102.1,148,102.1c7.7,0,58.7-33.2,112.3-76.6c336.9-268,714.6-270.5,1099.9-10.2c71.5,48.5,137.8,86.8,148,86.8c7.7,0,58.7-35.7,109.7-76.6c216.9-178.6,528.3-245,788.6-171c114.8,35.7,278.2,125.1,421.1,232.3c20.4,15.3,63.8-2.6,132.7-56.2c232.2-186.3,535.9-252.7,798.8-176.1c114.8,35.7,278.2,125.1,421.1,232.3c20.4,15.3,63.8-2.6,132.7-56.2c186.3-148,324.1-196.5,566.6-196.5c181.2,0,239.9,10.2,357.3,66.4c204.2,94.4,316.5,206.7,418.6,405.8c79.1,158.2,84.2,186.3,63.8,283.3c-12.8,56.1-40.8,137.8-63.8,181.2c-58.7,114.8-229.7,273.1-362.4,334.3l-120,56.2l-4274.7,2.6C2700.6-1097,753.3-1099.6,725.3-1107.3z"/>
<path d="M100-3562.4v-1048.9h4900h4900v1036.1V-2539l-79.1-68.9c-255.2-211.8-701.8-316.4-1043.8-242.5c-63.8,15.3-186.3,56.2-273.1,91.9l-155.7,63.8l-104.6-51c-137.8-71.5-393-130.2-564-130.2c-178.7,2.6-329.2,33.2-528.3,117.4l-155.7,63.8l-104.6-51c-137.8-71.5-393-130.2-564-130.2c-178.7,2.6-329.2,33.2-528.3,117.4l-155.7,63.8l-104.6-51c-319-163.3-742.6-168.4-1099.9-10.2l-137.8,61.3l-145.5-66.4c-308.8-137.8-663.5-148-980-25.5c-222,86.8-242.4,86.8-441.5,2.6c-298.6-127.6-678.9-114.8-1015.7,35.7l-112.3,48.5l-107.2-63.8c-334.3-191.4-806.4-148-1186.7,107.2c-94.4,63.8-181.2,122.5-191.4,127.6C107.7-2521.1,100-2988.1,100-3562.4z"/>
</g>
</g>
</svg>